<?xml version="1.0" standalone="no"?>
<!DOCTYPE svg PUBLIC "-//W3C//DTD SVG 20010904//EN"
 "http://www.w3.org/TR/2001/REC-SVG-20010904/DTD/svg10.dtd">
<svg version="1.0" xmlns="http://www.w3.org/2000/svg"
 width="2400.000000pt" height="1165.000000pt" viewBox="0 0 2400.000000 1165.000000"
 preserveAspectRatio="xMidYMid meet">
<metadata>
Created by potrace 1.15, written by Peter Selinger 2001-2017
</metadata>
<g transform="translate(0.000000,1165.000000) scale(0.100000,-0.100000)"
fill="#000000" stroke="none">
<path d="M2270 11546 c-149 -35 -405 -124 -477 -166 -36 -22 -102 -53 -147
-71 -69 -28 -96 -47 -180 -123 -148 -137 -213 -221 -294 -382 -175 -348 -222
-647 -222 -1416 l0 -418 -435 0 -435 0 0 -605 0 -605 435 0 435 0 0 -2675 0
-2675 820 0 820 0 0 2675 0 2675 545 0 545 0 0 605 0 605 -545 0 -545 0 0 378
c0 363 1 380 23 447 40 125 114 195 239 224 30 7 189 11 442 11 l396 0 0 770
0 770 -662 -1 c-648 -1 -665 -2 -758 -23z"/>
<path d="M6745 9615 c-44 -7 -307 -48 -585 -90 l-504 -77 -463 -216 -462 -215
-358 -374 -358 -374 -71 -152 c-39 -84 -143 -307 -231 -497 l-160 -345 -66
-619 -65 -619 65 -616 65 -616 235 -525 235 -525 344 -360 344 -360 208 -99
c532 -252 631 -299 692 -327 58 -26 124 -37 615 -108 l550 -79 565 94 c344 58
583 102 610 114 25 10 137 62 250 115 113 53 302 141 420 196 l215 100 250
260 c138 143 300 313 362 377 l111 117 225 505 225 505 56 520 c32 286 63 572
71 635 l13 115 -69 595 c-38 327 -75 611 -83 630 -7 19 -109 249 -226 510
l-212 475 -72 75 c-39 41 -171 179 -292 305 -122 127 -250 261 -285 299 -49
52 -81 76 -134 101 -38 18 -250 116 -470 218 l-401 185 -514 77 c-283 42 -526
78 -540 80 -14 2 -61 -3 -105 -10z m375 -1467 l295 -63 245 -160 244 -160 156
-260 155 -260 94 -330 c90 -314 95 -338 107 -485 7 -88 13 -314 14 -521 0
-363 0 -366 -25 -438 -13 -40 -55 -187 -92 -328 l-67 -256 -155 -286 -156
-286 -247 -165 -246 -166 -323 -74 -322 -74 -320 64 -320 63 -231 161 -231
161 -155 245 -155 245 -97 335 c-86 296 -97 344 -98 415 0 43 -7 135 -16 204
-17 129 -16 252 5 581 17 281 35 380 125 681 l82 277 154 233 155 234 260 190
260 190 270 46 c148 26 286 47 305 48 19 1 168 -27 330 -61z"/>
<path d="M10430 5900 l34 -3490 823 0 823 0 0 2043 0 2042 35 295 36 295 106
216 c101 205 108 217 152 245 25 15 69 49 96 74 225 207 387 283 713 335 146
24 174 25 593 25 l439 0 0 705 0 705 -137 0 c-363 -1 -830 -92 -1118 -218
-122 -53 -329 -170 -468 -264 -90 -61 -287 -248 -375 -358 l-77 -95 -3 468 -2
467 -853 0 -852 0 35 -3490z"/>
<path d="M14630 5895 l0 -3485 820 0 820 0 0 2038 0 2037 44 315 44 315 84
192 c92 209 110 235 277 398 72 70 93 83 193 127 62 28 165 65 228 83 144 42
315 54 496 35 l119 -12 135 -75 c112 -63 151 -91 229 -167 l93 -91 100 -205
100 -205 19 -165 c17 -156 19 -291 19 -2392 l0 -2228 815 0 815 0 0 2043 0
2042 41 290 41 290 91 220 92 220 143 134 144 135 151 69 c167 76 214 88 427
107 120 11 148 10 240 -5 91 -15 119 -25 210 -72 270 -143 364 -244 498 -538
55 -122 67 -156 85 -265 21 -124 21 -135 24 -2397 l3 -2273 815 0 815 0 0
2454 c0 2095 -2 2465 -14 2532 -8 44 -20 124 -26 179 -9 83 -28 151 -112 399
l-102 299 -180 275 -180 274 -165 111 c-91 60 -208 139 -260 175 -86 60 -106
69 -229 104 -301 84 -550 136 -712 149 -392 30 -678 -32 -1036 -226 -86 -47
-160 -101 -335 -245 -216 -178 -230 -192 -412 -405 -103 -121 -206 -243 -230
-269 l-43 -49 -54 128 c-51 120 -66 143 -227 355 -190 251 -230 290 -463 443
-108 71 -128 80 -316 141 -388 126 -599 152 -1003 126 -172 -11 -213 -17 -336
-50 -184 -50 -282 -96 -570 -270 -297 -178 -384 -252 -525 -445 l-95 -130 -3
458 -2 457 -820 0 -820 0 0 -3485z"/>
<path d="M15780 1605 l0 -75 75 0 75 0 0 75 0 75 -75 0 -75 0 0 -75z"/>
<path d="M16090 1605 l0 -75 80 0 80 0 0 75 0 75 -80 0 -80 0 0 -75z"/>
<path d="M15805 1442 c-87 -25 -174 -74 -221 -124 -109 -116 -142 -176 -193
-353 -37 -130 -28 -328 23 -472 62 -177 166 -295 330 -376 l81 -40 155 -1 155
0 87 36 c48 20 114 57 148 83 80 61 159 180 201 300 30 87 32 96 33 260 0 158
-1 177 -27 265 -54 184 -158 304 -341 391 l-85 41 -143 4 c-114 3 -155 0 -203
-14z m365 -172 c169 -79 260 -248 260 -487 0 -204 -34 -314 -130 -423 -83 -94
-168 -133 -297 -138 -71 -3 -103 0 -140 14 -155 59 -233 143 -282 302 -28 90
-32 116 -32 217 1 204 58 363 165 455 38 32 48 39 126 72 60 26 73 28 162 24
83 -3 107 -9 168 -36z"/>
<path d="M826 783 c-137 -368 -251 -674 -254 -680 -3 -10 19 -13 91 -13 l94 0
74 210 74 210 280 -2 280 -3 74 -207 74 -208 94 0 c85 0 94 2 89 18 -4 9 -118
314 -254 677 l-248 660 -109 3 -110 2 -249 -667z m409 367 c42 -112 165 -468
165 -476 0 -2 -97 -4 -216 -4 -169 0 -215 3 -212 13 92 264 212 597 214 595 1
-2 24 -59 49 -128z"/>
<path d="M1970 771 l0 -681 95 0 95 0 0 300 0 300 138 0 c171 0 212 -12 274
-78 55 -58 160 -215 262 -389 l78 -133 105 0 105 0 -14 23 c-8 12 -60 99 -117
192 -120 200 -222 332 -291 378 l-49 33 77 18 c113 26 202 87 240 163 60 119
65 226 17 331 -51 111 -114 165 -230 197 -49 13 -129 18 -422 22 l-363 6 0
-682z m755 485 c25 -15 59 -46 75 -68 27 -37 30 -49 30 -115 0 -85 -12 -115
-66 -163 -66 -58 -79 -60 -354 -60 l-250 0 0 221 0 222 260 -5 c259 -6 259 -6
305 -32z"/>
<path d="M3330 770 l0 -680 90 0 90 0 0 233 0 232 98 98 c53 53 100 97 104 97
4 0 122 -149 263 -330 l257 -330 109 0 110 0 -91 118 c-49 64 -185 240 -302
391 l-213 273 290 289 290 289 -125 0 -125 0 -325 -325 c-179 -179 -328 -325
-332 -325 -5 0 -8 146 -8 325 l0 325 -90 0 -90 0 0 -680z"/>
<path d="M4580 770 l0 -680 90 0 90 0 0 680 0 680 -90 0 -90 0 0 -680z"/>
<path d="M5000 1370 l0 -80 220 0 220 0 0 -600 0 -600 90 0 90 0 0 600 0 600
220 0 220 0 0 80 0 80 -530 0 -530 0 0 -80z"/>
<path d="M6250 770 l0 -680 495 0 495 0 0 80 0 80 -405 0 -405 0 0 235 0 235
365 0 365 0 0 75 0 75 -365 0 -365 0 0 210 0 210 390 0 390 0 0 80 0 80 -480
0 -480 0 0 -680z"/>
<path d="M7500 770 l0 -680 90 0 90 0 0 233 0 232 98 98 c53 53 100 97 104 97
4 0 120 -148 258 -330 l251 -330 115 0 115 0 -91 118 c-49 64 -185 240 -302
391 l-213 273 290 289 290 289 -125 0 -125 0 -325 -325 c-179 -179 -328 -325
-332 -325 -5 0 -8 146 -8 325 l0 325 -90 0 -90 0 0 -680z"/>
<path d="M8640 1370 l0 -80 225 0 225 0 0 -600 0 -600 90 0 90 0 0 600 0 600
220 0 220 0 0 80 0 80 -535 0 -535 0 0 -80z"/>
<path d="M9996 783 c-137 -368 -251 -674 -254 -680 -3 -10 19 -13 91 -13 l94
0 74 210 74 210 280 -2 280 -3 74 -207 74 -208 94 0 c85 0 94 2 89 18 -4 9
-118 314 -254 677 l-248 660 -109 3 -110 2 -249 -667z m409 367 c42 -112 165
-468 165 -476 0 -2 -99 -4 -221 -4 -173 0 -220 3 -217 13 48 133 222 596 224
594 1 -1 24 -58 49 -127z"/>
<path d="M11140 771 l0 -681 95 0 95 0 0 300 0 300 138 0 c171 0 212 -12 274
-78 55 -58 160 -215 262 -389 l78 -133 100 0 99 0 -32 58 c-195 340 -291 476
-378 535 l-50 33 77 18 c55 13 96 31 144 62 57 37 73 54 99 106 27 54 32 76
37 164 4 94 3 105 -21 158 -53 115 -115 169 -232 201 -49 13 -129 18 -422 22
l-363 6 0 -682z m748 485 c31 -16 64 -43 82 -68 26 -35 30 -50 30 -103 0 -78
-14 -121 -53 -163 -65 -68 -84 -72 -365 -72 l-252 0 0 221 0 222 253 -5 c249
-5 253 -6 305 -32z"/>
<path d="M14060 770 l0 -680 90 0 90 0 0 325 0 325 340 0 340 0 0 -325 0 -325
90 0 90 0 0 680 0 680 -90 0 -90 0 0 -275 0 -275 -340 0 -340 0 0 275 0 275
-90 0 -90 0 0 -680z"/>
<path d="M16870 770 l0 -680 90 0 90 0 2 517 3 518 333 -518 334 -517 94 0 94
0 0 680 0 680 -90 0 -90 0 -2 -515 -3 -514 -325 512 -325 512 -103 3 -102 3 0
-681z"/>
<path d="M18230 770 l0 -680 90 0 90 0 2 517 3 518 328 -518 329 -517 99 0 99
0 0 680 0 680 -90 0 -90 0 -2 -515 -3 -514 -330 512 -330 512 -98 3 -97 3 0
-681z"/>
<path d="M19583 963 c6 -470 7 -491 29 -568 45 -157 129 -248 273 -299 78 -28
84 -28 230 -23 138 5 158 8 232 36 66 26 90 42 135 89 133 140 138 167 138
778 l0 474 -89 0 -89 0 -4 -497 -3 -498 -33 -70 c-45 -95 -63 -111 -154 -140
-187 -59 -349 -17 -428 110 -46 74 -51 128 -57 628 l-5 467 -90 0 -91 0 6
-487z"/>
<path d="M20930 1160 l0 -290 -75 0 -75 0 0 -75 0 -75 75 0 75 0 0 -315 0
-315 278 0 c357 1 394 6 513 62 110 52 160 101 213 205 63 126 86 228 93 403
5 138 3 164 -17 240 -47 184 -152 322 -297 391 -60 29 -85 34 -213 45 -80 7
-241 13 -357 14 l-213 0 0 -290z m612 119 c112 -24 190 -85 244 -191 88 -172
87 -445 -2 -645 -36 -83 -65 -115 -136 -153 l-63 -34 -232 -4 -233 -5 0 237 0
236 180 0 180 0 0 75 0 75 -180 0 -180 0 0 210 0 210 185 0 c101 0 208 -5 237
-11z"/>
<path d="M22290 770 l0 -680 90 0 90 0 0 680 0 680 -90 0 -90 0 0 -680z"/>
<path d="M22810 771 l0 -681 90 0 90 0 0 300 0 300 138 0 c182 0 211 -10 294
-99 44 -47 102 -133 192 -284 l129 -217 104 0 104 0 -32 58 c-195 340 -291
476 -379 535 l-50 34 82 19 c103 23 183 79 235 166 33 53 35 64 40 161 5 97 4
108 -20 161 -53 116 -112 165 -243 201 -48 13 -127 18 -416 22 l-358 6 0 -682z
m747 483 c92 -57 132 -156 103 -259 -14 -52 -85 -119 -142 -136 -18 -5 -144
-9 -280 -9 l-248 0 0 221 0 222 260 -5 260 -5 47 -29z"/>
</g>
</svg>
